<svg width="517" height="538" viewBox="0 0 517 538" fill="none" xmlns="http://www.w3.org/2000/svg">
<rect x="69.5" y="96.5" width="364" height="330" rx="82.5" fill="#0088FF" stroke="#0088FF"/>
<path d="M150.696 294.536C146.984 294.536 143.88 293.896 141.384 292.616C138.888 291.272 136.872 289.448 135.336 287.144V245.288C137 242.856 139.08 241 141.576 239.72C144.072 238.376 147.112 237.704 150.696 237.704C155.816 237.704 160.168 238.92 163.752 241.352C167.336 243.784 170.088 247.144 172.008 251.432C173.928 255.72 174.888 260.648 174.888 266.216C174.888 271.72 173.928 276.616 172.008 280.904C170.088 285.192 167.336 288.552 163.752 290.984C160.168 293.352 155.816 294.536 150.696 294.536ZM121.608 312.2V239.24H135.336V312.2H121.608ZM148.296 282.248C151.112 282.248 153.448 281.544 155.304 280.136C157.16 278.664 158.536 276.712 159.432 274.28C160.392 271.848 160.872 269.16 160.872 266.216C160.872 263.208 160.392 260.488 159.432 258.056C158.536 255.56 157.16 253.608 155.304 252.2C153.448 250.728 151.112 249.992 148.296 249.992C145.352 249.992 142.92 250.728 141 252.2C139.08 253.608 137.64 255.56 136.68 258.056C135.784 260.488 135.336 263.208 135.336 266.216C135.336 269.16 135.784 271.848 136.68 274.28C137.64 276.712 139.08 278.664 141 280.136C142.92 281.544 145.352 282.248 148.296 282.248ZM181.885 239.24H195.613V293H181.885V239.24ZM195.613 266.696L194.173 256.808C194.173 255.144 194.333 253.224 194.653 251.048C194.973 248.872 195.709 246.792 196.861 244.808C198.077 242.76 199.933 241.064 202.429 239.72C204.925 238.376 208.317 237.704 212.605 237.704V251.144C208.829 251.144 205.661 251.56 203.101 252.392C200.605 253.224 198.717 254.76 197.437 257C196.221 259.176 195.613 262.408 195.613 266.696ZM241.637 294.536C236.133 294.536 231.301 293.352 227.141 290.984C223.045 288.552 219.845 285.192 217.541 280.904C215.301 276.616 214.181 271.72 214.181 266.216C214.181 260.648 215.301 255.72 217.541 251.432C219.845 247.144 223.045 243.784 227.141 241.352C231.301 238.92 236.133 237.704 241.637 237.704C247.205 237.704 252.037 238.92 256.133 241.352C260.229 243.784 263.397 247.144 265.637 251.432C267.941 255.72 269.093 260.648 269.093 266.216C269.093 271.72 267.941 276.616 265.637 280.904C263.397 285.192 260.229 288.552 256.133 290.984C252.037 293.352 247.205 294.536 241.637 294.536ZM241.637 282.248C244.773 282.248 247.301 281.544 249.221 280.136C251.205 278.664 252.677 276.712 253.637 274.28C254.597 271.848 255.077 269.16 255.077 266.216C255.077 263.208 254.597 260.488 253.637 258.056C252.677 255.56 251.205 253.608 249.221 252.2C247.301 250.728 244.773 249.992 241.637 249.992C238.565 249.992 236.037 250.728 234.053 252.2C232.069 253.608 230.597 255.56 229.637 258.056C228.677 260.488 228.197 263.208 228.197 266.216C228.197 269.16 228.677 271.848 229.637 274.28C230.597 276.712 232.069 278.664 234.053 280.136C236.037 281.544 238.565 282.248 241.637 282.248ZM305.196 294.536C301.484 294.536 298.38 293.896 295.884 292.616C293.388 291.272 291.372 289.448 289.836 287.144V245.288C291.5 242.856 293.58 241 296.076 239.72C298.572 238.376 301.612 237.704 305.196 237.704C310.316 237.704 314.668 238.92 318.252 241.352C321.836 243.784 324.588 247.144 326.508 251.432C328.428 255.72 329.388 260.648 329.388 266.216C329.388 271.72 328.428 276.616 326.508 280.904C324.588 285.192 321.836 288.552 318.252 290.984C314.668 293.352 310.316 294.536 305.196 294.536ZM276.108 312.2V239.24H289.836V312.2H276.108ZM302.796 282.248C305.612 282.248 307.948 281.544 309.804 280.136C311.66 278.664 313.036 276.712 313.932 274.28C314.892 271.848 315.372 269.16 315.372 266.216C315.372 263.208 314.892 260.488 313.932 258.056C313.036 255.56 311.66 253.608 309.804 252.2C307.948 250.728 305.612 249.992 302.796 249.992C299.852 249.992 297.42 250.728 295.5 252.2C293.58 253.608 292.14 255.56 291.18 258.056C290.284 260.488 289.836 263.208 289.836 266.216C289.836 269.16 290.284 271.848 291.18 274.28C292.14 276.712 293.58 278.664 295.5 280.136C297.42 281.544 299.852 282.248 302.796 282.248ZM361.637 294.536C356.133 294.536 351.301 293.352 347.141 290.984C343.045 288.552 339.845 285.192 337.541 280.904C335.301 276.616 334.181 271.72 334.181 266.216C334.181 260.648 335.301 255.72 337.541 251.432C339.845 247.144 343.045 243.784 347.141 241.352C351.301 238.92 356.133 237.704 361.637 237.704C367.205 237.704 372.037 238.92 376.133 241.352C380.229 243.784 383.397 247.144 385.637 251.432C387.941 255.72 389.093 260.648 389.093 266.216C389.093 271.72 387.941 276.616 385.637 280.904C383.397 285.192 380.229 288.552 376.133 290.984C372.037 293.352 367.205 294.536 361.637 294.536ZM361.637 282.248C364.773 282.248 367.301 281.544 369.221 280.136C371.205 278.664 372.677 276.712 373.637 274.28C374.597 271.848 375.077 269.16 375.077 266.216C375.077 263.208 374.597 260.488 373.637 258.056C372.677 255.56 371.205 253.608 369.221 252.2C367.301 250.728 364.773 249.992 361.637 249.992C358.565 249.992 356.037 250.728 354.053 252.2C352.069 253.608 350.597 255.56 349.637 258.056C348.677 260.488 348.197 263.208 348.197 266.216C348.197 269.16 348.677 271.848 349.637 274.28C350.597 276.712 352.069 278.664 354.053 280.136C356.037 281.544 358.565 282.248 361.637 282.248Z" fill="#FFFBFB"/>
</svg>
