<svg width="100" height="25" viewBox="0 0 162 25" fill="none" xmlns="http://www.w3.org/2000/svg">
<path fill-rule="evenodd" clip-rule="evenodd" d="M44.1861 17.7939C45.1021 19.5934 46.4197 21.116 48.0187 22.2228C48.9708 22.8842 50.008 23.3897 51.0966 23.7229C52.223 24.063 53.3874 24.2329 54.5568 24.2277C56.0794 24.2411 57.5924 23.9652 59.027 23.4125C60.3769 22.8902 61.6183 22.0847 62.68 21.042C63.8229 19.9463 64.7311 18.5937 65.341 17.0787C65.9492 15.5045 66.2521 13.8119 66.2308 12.1058C66.2451 10.4736 65.9774 8.85293 65.4415 7.32726C64.9267 5.88173 64.1343 4.57097 63.1166 3.48163C62.0601 2.34978 60.7976 1.46838 59.4093 0.893506C57.9404 0.289037 56.3802 -0.0134205 54.8089 0.00166312C53.2172 -0.0237196 51.633 0.241607 50.1228 0.786485C48.7631 1.29622 47.5146 2.10309 46.455 3.157C45.3099 4.28479 44.3975 5.66146 43.7775 7.19705C42.3528 10.6002 42.505 14.5335 44.1877 17.7957L44.1861 17.7939ZM51.4541 6.10187C51.8313 5.48415 52.474 5.11809 53.1579 5.13154C53.9609 5.13154 54.6826 5.49898 55.323 6.23386C55.9634 6.96874 56.584 8.15014 57.1849 9.77805C57.5217 10.7028 57.7831 11.6578 57.9659 12.6319C58.1378 13.5371 58.2266 14.4584 58.2312 15.3824C58.2312 16.5228 58.0329 17.4146 57.6363 18.0579C57.2816 18.6692 56.6553 19.0326 55.9886 19.014C55.2439 19.014 54.537 18.6483 53.868 17.917C53.1991 17.1857 52.6021 16.1315 52.077 14.7545C51.6903 13.718 51.3785 12.6505 51.1444 11.5617C50.9382 10.6373 50.8277 9.69085 50.8148 8.73994C50.8148 7.63168 51.0301 6.75351 51.4607 6.10544L51.4541 6.10187ZM19.4803 15.7552C19.4792 18.263 18.5637 20.3018 16.7336 21.8714V21.8679C14.9035 23.4387 12.5012 24.2241 9.52652 24.2241C7.9125 24.2336 6.30574 23.9897 4.7564 23.4999C3.25149 23.0183 2.24529 22.4719 1.73779 21.8607C1.30829 21.3328 0.971608 20.586 0.727747 19.6204C0.472441 18.5651 0.349407 17.4774 0.361955 16.3866C0.361955 15.7029 0.476197 15.1975 0.704679 14.8705C0.933161 14.5435 1.29621 14.38 1.79382 14.38C2.41335 14.38 3.02411 14.8723 3.62607 15.8568C3.83148 16.1874 3.99625 16.436 4.12038 16.6024C4.71498 17.4865 5.46469 18.235 6.32666 18.8053C7.07378 19.2888 7.92778 19.5446 8.79823 19.5455C9.34552 19.5713 9.888 19.4251 10.3603 19.1246C10.7612 18.8463 10.9617 18.4896 10.9617 18.0544C10.9617 17.4729 10.2021 16.8967 8.68289 16.326C8.00403 16.0762 7.46413 15.8634 7.06319 15.6874C4.98049 14.817 3.4223 13.7325 2.38864 12.434C1.36798 11.1677 0.816275 9.53736 0.839791 7.85702C0.84089 5.60957 1.65156 3.75573 3.27181 2.29548C4.89206 0.835239 6.96927 0.105117 9.50345 0.105117C10.4515 0.106098 11.3968 0.21793 12.3227 0.438666L12.6506 0.515853L12.6507 0.515875C13.3799 0.687557 13.7471 0.773999 13.7644 0.773999C14.0935 0.762068 14.4205 0.712443 14.7399 0.625953C15.0173 0.547888 15.3008 0.498319 15.5868 0.477907C15.9326 0.475002 16.2732 0.569018 16.5754 0.750811C16.9375 0.989588 17.2564 1.29786 17.5163 1.66049C18.0087 2.28376 18.4165 2.97987 18.7273 3.72778C18.9956 4.34663 19.1426 5.01893 19.159 5.70232C19.1845 6.36369 18.9678 7.0092 18.556 7.4985C18.1551 7.95973 17.5902 8.21188 17.0055 8.19057C16.4222 8.19057 15.6664 7.70362 14.7382 6.72973C14.4416 6.41758 14.2077 6.1857 14.0347 6.02874C13.6137 5.60303 13.1231 5.26609 12.588 5.03523C12.061 4.80049 11.4969 4.67931 10.9271 4.67849C10.3745 4.67849 9.94229 4.7974 9.63032 5.03523C9.32784 5.25778 9.15232 5.63308 9.16567 6.02874C9.16567 6.84567 10.2845 7.61087 12.5221 8.32434C12.8483 8.4278 13.0872 8.50628 13.2405 8.55801C15.5154 9.29407 17.1241 10.2139 18.0666 11.3174C19.0091 12.4209 19.4803 13.9001 19.4803 15.7552ZM24.8369 23.8103C23.0585 23.8103 21.7178 23.6111 20.8149 23.2127L20.8066 23.211C19.9026 22.8067 19.4506 22.2121 19.4506 21.4273C19.4506 20.6995 19.8526 20.1644 20.6567 19.822L20.6803 19.811L20.6805 19.8109C20.8411 19.7364 20.9569 19.6827 21.0307 19.6436C21.2691 19.5282 21.4487 18.8956 21.5695 17.7458C21.7083 16.0812 21.7677 14.4101 21.7475 12.7389C21.742 9.89813 21.7063 7.8683 21.6404 6.64945C21.5745 5.43059 21.4646 4.71712 21.3108 4.50902C21.3009 4.5001 21.0192 4.34849 20.4656 4.05953C19.9163 3.77295 19.6417 3.33238 19.6417 2.73782C19.6417 1.96014 20.125 1.37687 21.0917 0.988026C22.0583 0.599183 23.5078 0.404761 25.44 0.404761C27.4304 0.407139 28.8442 0.570644 29.6812 0.895275C30.5182 1.21991 30.9368 1.75501 30.9368 2.50059C30.9478 2.81913 30.8752 3.13453 30.7275 3.41027C30.5891 3.65999 30.3024 3.91505 29.8707 4.19509C29.5633 4.36836 29.3137 4.64159 29.1572 4.97635C29.0369 5.27779 28.9776 5.84679 28.9776 6.70474V7.93191C28.9776 8.62398 29.1029 9.05742 29.3566 9.23579C29.6103 9.41178 30.2211 9.49977 31.1889 9.49977C31.7648 9.50551 32.3406 9.47931 32.914 9.42129C33.2591 9.39704 33.5984 9.31335 33.9191 9.17336C34.0607 9.10267 34.1641 8.96504 34.1992 8.80057C34.2674 8.43264 34.294 8.05708 34.2783 7.6822V7.26303C34.2866 6.62938 34.2314 5.99663 34.1135 5.37589C34.0081 4.8717 33.8647 4.54172 33.6835 4.38595C33.5547 4.28891 33.4204 4.20074 33.2814 4.12196C32.6883 3.75928 32.3917 3.27174 32.3917 2.65934C32.3928 1.84003 32.8234 1.25915 33.6835 0.916679C34.5436 0.574211 36.1023 0.402971 38.3597 0.402971C40.3282 0.401788 41.7216 0.564698 42.5399 0.891707C43.3583 1.21872 43.7675 1.76452 43.7675 2.52913C43.7675 3.18077 43.383 3.72896 42.6141 4.17369C42.4054 4.29409 42.2039 4.42873 42.011 4.5768C41.8199 4.73377 41.6864 5.25104 41.6106 6.13218C41.5337 7.01451 41.4953 8.91175 41.4953 11.8239C41.4953 14.2913 41.5288 16.1499 41.5958 17.3997C41.6628 18.6495 41.7688 19.3725 41.9138 19.5687C41.9138 19.5794 42.1681 19.7429 42.6767 20.0592C43.1644 20.3352 43.4614 20.8908 43.4396 21.4861C43.4385 22.2947 42.9991 22.8828 42.1214 23.2502C41.2437 23.6176 39.8487 23.8014 37.9362 23.8014C35.9447 23.8014 34.4969 23.623 33.5929 23.2663C32.6888 22.9095 32.2368 22.3376 32.2368 21.5504C32.2278 21.1933 32.3124 20.8409 32.4807 20.5337C32.6776 20.2139 32.9434 19.9506 33.2551 19.7667L33.5286 19.6097C33.8351 19.4313 34.0114 19.253 34.0592 19.0746C34.1168 18.6893 34.163 18.1631 34.2025 17.5157C34.2421 16.8682 34.2602 16.169 34.2602 15.4412C34.2558 14.5684 34.124 14.0464 33.8647 13.8752C33.6055 13.7039 33.0013 13.6183 32.0523 13.6183C31.4358 13.6106 30.8194 13.6446 30.2068 13.72C29.826 13.7557 29.454 13.8638 29.1078 14.0393C28.9546 14.1278 28.8485 14.2889 28.8211 14.4745C28.7501 14.8541 28.7208 15.2415 28.7338 15.6285C28.7248 16.5296 28.7799 17.43 28.8985 18.3219C29.0023 19.0389 29.1342 19.4599 29.2989 19.583C29.3504 19.6205 29.4202 19.6672 29.5077 19.7257L29.5079 19.7257L29.5083 19.7261C29.5494 19.7535 29.5944 19.7836 29.6433 19.8166C30.3298 20.2792 30.6731 20.8077 30.6731 21.4023C30.6731 22.2109 30.1903 22.8144 29.2248 23.2127C28.2592 23.6111 26.7966 23.8103 24.8369 23.8103ZM77.6444 15.4091C77.3577 15.4091 77.0595 15.402 76.7481 15.3859L76.7398 15.4055C76.4284 15.3913 76.1154 15.3663 75.7858 15.336C75.7858 15.5019 75.7858 15.723 75.771 16.0031C75.7562 16.2831 75.7562 16.4793 75.7562 16.5935C75.7406 17.2798 75.7864 17.9661 75.8929 18.6429C75.983 19.1091 76.1335 19.4349 76.3444 19.6204C76.5117 19.7501 76.6886 19.8647 76.8733 19.9629C77.5324 20.3362 77.8619 20.8285 77.8619 21.4398C77.8608 22.29 77.4061 22.9095 76.4976 23.2984C75.5892 23.6872 74.1348 23.8816 72.1345 23.8816C70.0111 23.8804 68.4612 23.6783 67.4846 23.2752C66.5081 22.8721 66.0198 22.2299 66.0198 21.3488C66.0198 20.7614 66.3126 20.2857 66.8981 19.9218C67.4836 19.558 67.8093 19.3166 67.8752 19.1977C68.0487 18.9182 68.1712 17.9449 68.2426 16.2778C68.314 14.6106 68.3497 11.4832 68.3497 6.89558C68.3497 5.96449 68.2756 5.29918 68.1273 4.89963C67.9796 4.50197 67.6948 4.18212 67.3331 4.00779C67.2177 3.94715 67.0612 3.87401 66.8602 3.79018C66.0912 3.4489 65.7068 2.9572 65.7068 2.31507C65.6832 1.74735 65.9778 1.22012 66.4532 0.979092C66.9508 0.699648 67.7356 0.559926 68.8078 0.559926C69.1423 0.559926 69.5443 0.575979 70.0188 0.606302C70.4934 0.636625 70.8015 0.652676 70.9448 0.652676C71.5369 0.652676 72.5843 0.593222 74.087 0.474307C75.5897 0.355397 76.786 0.295939 77.6757 0.295939C80.5548 0.294751 82.7046 0.895259 84.1249 2.09746C85.5452 3.29967 86.2554 5.11724 86.2554 7.55019C86.2554 10.0355 85.5046 11.9666 84.0029 13.3436C82.5013 14.7206 80.3818 15.4091 77.6444 15.4091ZM75.7216 4.77834C75.6117 5.09822 75.5568 5.85926 75.5568 7.06146L75.5634 7.05789V9.41949C75.5634 10.2994 75.6013 10.8536 75.6771 11.0819C75.752 11.3081 75.9606 11.4491 76.1813 11.4226C76.9777 11.4166 77.6038 11.1164 78.0597 10.5218C78.5155 9.92725 78.7435 9.09486 78.7435 8.02465C78.7435 6.84385 78.5325 5.92704 78.1107 5.27421C77.7212 4.64099 77.0567 4.27117 76.3543 4.29675C76.065 4.27617 75.8016 4.47668 75.7216 4.77834ZM95.3491 9.26793C95.3392 8.9873 95.3342 8.60499 95.3342 8.12102V6.69407C95.3342 5.57154 95.399 4.8652 95.5286 4.57505C95.6583 4.28491 95.929 4.13983 96.341 4.13983C97.0418 4.13983 97.5597 4.3622 97.8948 4.80693C98.2298 5.25166 98.3979 5.94076 98.399 6.87422C98.399 8.09545 98.2342 8.96233 97.9046 9.47484C97.5751 9.98735 97.0259 10.2436 96.2569 10.2436C96.1465 10.2427 96.0364 10.2326 95.9274 10.2133C95.8022 10.1919 95.6259 10.1509 95.3952 10.0884C95.3754 9.82087 95.3622 9.55332 95.3523 9.26793H95.3491ZM95.8796 13.9697C96.0123 13.944 96.1469 13.9315 96.2816 13.9323C97.3549 13.9323 98.2073 15.279 98.8389 17.9723C98.8694 18.102 98.8964 18.2148 98.9194 18.3109C98.946 18.4222 98.9672 18.5109 98.9822 18.577L99.0103 18.7179C99.5177 20.8108 100.155 22.1991 100.922 22.8828C101.4 23.2924 101.953 23.5873 102.545 23.7479C103.298 23.9544 104.074 24.0516 104.851 24.0369C106.337 24.0369 107.527 23.799 108.422 23.3234C108.687 23.1825 108.913 23.0288 109.1 22.8622C109.268 22.9627 109.458 23.0558 109.671 23.1414L109.681 23.1539C110.706 23.5677 112.146 23.7746 114.003 23.7746C116.005 23.7746 117.488 23.5856 118.452 23.2074C119.415 22.8293 119.898 22.246 119.902 21.4576C119.902 20.8868 119.576 20.3476 118.925 19.8398C118.724 19.6914 118.532 19.5306 118.349 19.3582C118.167 19.1709 118.038 18.8552 117.961 18.4093C117.866 17.6474 117.827 16.8786 117.845 16.1101C117.845 12.2752 117.886 9.49562 117.967 7.77139C118.049 6.04716 118.185 5.03641 118.376 4.73913C118.631 4.50421 118.902 4.28904 119.185 4.09522C119.706 3.70637 119.966 3.22716 119.966 2.65757C119.966 1.87155 119.514 1.29423 118.611 0.925607C117.709 0.556978 116.286 0.373258 114.344 0.374442C112.374 0.374442 110.905 0.568869 109.935 0.957713C108.965 1.34656 108.48 1.94112 108.48 2.7414C108.48 3.31099 108.814 3.81339 109.482 4.24861C109.72 4.40379 109.897 4.52865 110.01 4.6214C110.23 4.8081 110.386 5.14224 110.477 5.62384C110.587 6.41882 110.632 7.22284 110.612 8.02646C110.612 8.3065 110.612 8.8309 110.599 9.59789C110.585 10.3649 110.584 10.9963 110.584 11.4939C110.584 14.3764 110.529 16.3384 110.419 17.3801C110.309 18.4218 110.118 19.0592 109.846 19.2922C109.73 19.3868 109.538 19.5205 109.271 19.6971C109.048 19.84 108.858 19.9899 108.701 20.1465C108.594 20.093 108.479 20.0413 108.356 19.9915C108.251 19.9504 108.165 19.9148 108.097 19.8826C107.838 19.7792 107.622 19.1472 107.45 17.9866C107.425 17.7874 107.403 17.6227 107.386 17.4936L107.379 17.4426C107.197 16.2725 106.935 15.3354 106.595 14.6315C106.272 13.9491 105.801 13.362 105.222 12.9209C104.823 12.6453 104.386 12.4406 103.927 12.3145C103.342 12.129 103.049 11.9167 103.05 11.6777C103.05 11.4815 103.276 11.2591 103.728 11.0106C103.951 10.8971 104.168 10.7672 104.375 10.6217C105.009 10.1785 105.525 9.56362 105.871 8.83806C106.215 8.08118 106.385 7.24629 106.369 6.40333C106.369 4.47933 105.697 3.00184 104.352 1.97087C103.008 0.939899 101.081 0.425008 98.5736 0.426195C98.0859 0.426195 97.2027 0.447007 95.9241 0.488626C94.6455 0.530245 93.6096 0.551055 92.8165 0.551055C92.3288 0.551055 91.7592 0.545704 91.1078 0.535002C90.4565 0.5243 90.0451 0.518949 89.8737 0.518949C88.5896 0.518949 87.6229 0.674724 86.9737 0.986275C86.3245 1.29783 85.9989 1.75921 85.9967 2.37042C85.9967 2.97211 86.3701 3.48046 87.1171 3.89547C87.3203 4.00008 87.5168 4.11925 87.7053 4.2522C87.925 4.41749 88.0783 4.88304 88.165 5.64883C88.2518 6.41463 88.2952 8.07405 88.2952 10.6271V11.8097C88.3143 13.7152 88.24 15.6205 88.0728 17.5175C87.9245 18.9575 87.735 19.7447 87.5043 19.8791L87.1896 20.0574C86.3932 20.5141 85.9956 21.0492 85.9967 21.6628C85.9967 22.4405 86.4536 23.0005 87.3675 23.343C88.2815 23.6855 89.782 23.8567 91.8691 23.8567C93.9562 23.8567 95.4084 23.6991 96.2256 23.384C97.0429 23.0689 97.4521 22.5273 97.4532 21.7591C97.4532 21.1277 97.0879 20.5789 96.3574 20.1127C96.1979 20.0154 96.0444 19.9069 95.8977 19.7881C95.7527 19.674 95.6522 19.4474 95.5946 19.1103C95.521 18.4595 95.4923 17.8037 95.5089 17.1483V14.0732C95.6325 14.0322 95.7577 13.9983 95.8813 13.9715L95.8796 13.9697ZM125.268 0.504663C124.982 0.478886 124.701 0.405489 124.435 0.287053C124.169 0.1684 123.887 0.0949947 123.601 0.0694433C123.186 0.0904013 122.79 0.259797 122.474 0.551039C122.017 0.952759 121.622 1.43014 121.302 1.9655C120.825 2.72358 120.425 3.5358 120.109 4.38775C119.849 5.05263 119.703 5.76358 119.679 6.48536C119.656 7.12725 119.853 7.75569 120.233 8.24943C120.579 8.69808 121.094 8.95211 121.633 8.93972C122.076 8.94292 122.509 8.79637 122.871 8.52055C123.244 8.24229 123.705 7.70719 124.252 6.91523C124.278 6.87476 124.306 6.82988 124.337 6.78088C124.409 6.66794 124.494 6.53314 124.594 6.38013C125.092 5.59293 125.513 5.19992 125.857 5.20111C126.186 5.20111 126.405 5.41158 126.529 5.82897C126.652 6.24635 126.717 7.19349 126.717 8.66324V10.108C126.717 12.8264 126.628 14.9733 126.451 16.5489C126.275 18.1245 126.019 19.0473 125.684 19.3172C125.451 19.47 125.207 19.6001 124.954 19.706C124.094 20.0913 123.663 20.6306 123.663 21.3239C123.663 22.1122 124.197 22.7264 125.263 23.1664C126.33 23.6064 127.826 23.827 129.75 23.8281C132.124 23.8281 133.84 23.6284 134.898 23.2288C135.955 22.8293 136.484 22.1788 136.484 21.2775C136.484 20.6246 136.135 20.1323 135.436 19.8006C135.331 19.7487 135.237 19.7 135.155 19.6575C135.087 19.6226 135.028 19.5919 134.977 19.5669C134.586 19.3447 134.286 18.9735 134.135 18.5252C133.979 18.0686 133.9 17.2808 133.899 16.1619C133.899 15.0096 133.923 13.4667 133.97 11.5332C134.017 9.59968 134.044 8.24646 134.051 7.47353V6.40331C134.029 6.06314 134.091 5.72289 134.23 5.41694C134.345 5.20748 134.558 5.08491 134.782 5.09944C135.118 5.09944 135.511 5.52871 135.96 6.38726C136.114 6.68692 136.244 6.92237 136.349 7.10073C136.624 7.64073 137.003 8.10991 137.461 8.47596C137.844 8.77953 138.305 8.94492 138.78 8.94863C139.516 8.94863 140.088 8.68465 140.496 8.15668C140.905 7.62871 141.108 6.88313 141.106 5.91993C141.095 5.03388 140.928 4.1583 140.612 3.34072C140.589 3.27763 140.565 3.21487 140.54 3.15246C140.675 3.32019 140.854 3.46618 141.075 3.59045C141.413 3.76259 141.738 3.96546 142.045 4.1969C142.276 4.45494 142.441 5.05604 142.54 6.00021C142.638 6.94437 142.689 8.4831 142.691 10.6164C142.691 13.745 142.617 15.996 142.469 17.3694C142.32 18.7429 142.079 19.6163 141.745 19.9897C141.532 20.1841 141.302 20.3556 141.058 20.5016C140.379 20.9154 140.04 21.4226 140.04 22.0231C140.04 22.6236 140.198 23.035 140.513 23.2574C140.827 23.4893 141.431 23.6082 142.325 23.6141H152.961C154.589 23.6053 156.213 23.7721 157.811 24.1118V24.1153C157.938 24.1496 158.067 24.1753 158.198 24.192C158.544 24.187 158.875 24.0397 159.124 23.78C159.406 23.5053 159.714 23.0261 160.048 22.3423C160.421 21.5979 160.715 20.8097 160.923 19.9932C161.119 19.2329 161.221 18.4477 161.225 17.6584C161.225 16.9544 161.079 16.4193 160.788 16.0531C160.497 15.6868 160.074 15.5025 159.519 15.5001C158.946 15.5001 158.411 15.9538 157.914 16.8611C157.724 17.2087 157.513 17.543 157.283 17.8617C156.826 18.4986 156.212 18.9827 155.512 19.2583C154.78 19.5604 153.864 19.7108 152.764 19.7096C152.128 19.7284 151.492 19.689 150.862 19.5919C150.572 19.5572 150.302 19.4177 150.094 19.1959C149.921 18.939 149.818 18.6352 149.794 18.3183C149.718 17.4481 149.689 16.5738 149.707 15.6999C149.707 14.7569 149.791 14.1659 149.959 13.9269C150.127 13.6879 150.483 13.569 151.025 13.5702C151.503 13.5702 151.828 13.6599 151.999 13.8395C152.17 14.0191 152.314 14.4947 152.429 15.2665C152.442 15.3126 152.452 15.3597 152.459 15.4074C152.621 16.5347 153.028 17.0983 153.68 17.0983C154.408 17.0983 154.961 16.609 155.339 15.6303C155.717 14.6517 155.906 13.198 155.907 11.2692C155.907 9.69481 155.73 8.5158 155.375 7.73217C155.02 6.94853 154.494 6.55731 153.795 6.5585C153.124 6.5585 152.674 7.22798 152.444 8.56693C152.416 8.72211 152.391 8.84162 152.373 8.92367C152.278 9.4017 152.136 9.71741 151.95 9.87437C151.763 10.0313 151.445 10.1063 150.997 10.1063C150.377 10.1063 149.987 10.0129 149.829 9.82621C149.664 9.64784 149.593 9.0949 149.593 8.19236C149.584 7.41795 149.618 6.64365 149.694 5.87356C149.76 5.28851 149.85 4.92286 149.966 4.7766C150.153 4.57954 150.395 4.45426 150.655 4.41986C150.984 4.35208 151.698 4.31819 152.797 4.31819C153.529 4.29514 154.26 4.41104 154.955 4.66066C155.529 4.89294 156.039 5.27895 156.438 5.7826C156.578 5.95942 156.707 6.14591 156.825 6.34089C157.333 7.13879 157.868 7.53715 158.432 7.53596C158.947 7.54807 159.432 7.27249 159.715 6.80643C160.036 6.31889 160.196 5.66131 160.196 4.83367C160.196 3.41505 159.958 2.27587 159.48 1.41613C159.002 0.556395 158.37 0.126526 157.583 0.126526C157.545 0.126526 157.44 0.137228 157.268 0.158633C155.072 0.446034 152.86 0.580681 150.648 0.561746C149.06 0.561746 147.396 0.540936 145.659 0.499317C143.921 0.457698 142.976 0.436888 142.823 0.436888C141.971 0.436888 141.322 0.587312 140.877 0.88816C140.452 1.15803 140.199 1.65912 140.218 2.19204C140.218 2.29175 140.226 2.38761 140.241 2.47961C139.967 1.92671 139.636 1.40775 139.254 0.932748C139.038 0.658503 138.768 0.440788 138.463 0.295971C138.165 0.153097 137.842 0.0789904 137.516 0.0783617C137.149 0.0939807 136.786 0.167284 136.438 0.295971C136.16 0.404957 135.871 0.477998 135.576 0.513581L125.268 0.504663Z" fill="red"/>
</svg>
